<svg xmlns="http://www.w3.org/2000/svg" width="29.1" height="25.701" viewBox="0 0 29.1 25.701">
  <path id="Icon_weather-sunset" data-name="Icon weather-sunset" d="M3.456,18.564a1.039,1.039,0,0,1,.36-.816,1.067,1.067,0,0,1,.816-.312H7.4a1.085,1.085,0,0,1,.8.324,1.124,1.124,0,0,1,.312.8,1.2,1.2,0,0,1-.324.852,1.055,1.055,0,0,1-.792.348H4.644a1.1,1.1,0,0,1-.828-.36A1.145,1.145,0,0,1,3.456,18.564ZM7.4,9.132a1.105,1.105,0,0,1,.3-.816,1.145,1.145,0,0,1,.84-.36,1.006,1.006,0,0,1,.816.36L11.3,10.272a1,1,0,0,1,0,1.62,1.055,1.055,0,0,1-.78.336,1.314,1.314,0,0,1-.816-.336L7.716,9.948A1.153,1.153,0,0,1,7.4,9.132ZM9.768,25.068a1.138,1.138,0,0,1,.36-.828,1.113,1.113,0,0,1,.816-.324h3.864a.529.529,0,0,1,.336.1l2.82,2.664L20.832,24a.6.6,0,0,1,.348-.1h3.96a1.164,1.164,0,0,1,0,2.328H21.924L18.156,29.64a.282.282,0,0,1-.4,0l-3.7-3.408h-3.12a1.133,1.133,0,0,1-.828-.348A1.088,1.088,0,0,1,9.768,25.068Zm1.128-6.5a6.743,6.743,0,0,0,.7,3.144.343.343,0,0,0,.324.192H14.16c.1,0,.156-.024.18-.084s-.012-.132-.084-.216a4.759,4.759,0,0,1-1.068-3.036A4.532,4.532,0,0,1,14.6,15.192a4.868,4.868,0,0,1,6.816,0,4.589,4.589,0,0,1,1.416,3.36,4.759,4.759,0,0,1-1.068,3.036c-.084.084-.108.156-.084.216s.084.084.18.084H24.12a.259.259,0,0,0,.288-.192,6.679,6.679,0,0,0,.744-3.144,7,7,0,0,0-.564-2.748,7.17,7.17,0,0,0-1.524-2.28A7.318,7.318,0,0,0,20.8,12a6.8,6.8,0,0,0-2.76-.564,7.009,7.009,0,0,0-2.76.564,7.318,7.318,0,0,0-2.268,1.524,7.235,7.235,0,0,0-1.524,2.28A6.913,6.913,0,0,0,10.9,18.564ZM16.848,7.992V5.2a1.176,1.176,0,0,1,2.352,0V7.98a1.171,1.171,0,0,1-2,.828A1.064,1.064,0,0,1,16.848,7.992Zm7.524,3.1a1.066,1.066,0,0,1,.312-.8L26.64,8.328a.99.99,0,0,1,.816-.36,1.088,1.088,0,0,1,.816.348,1.16,1.16,0,0,1,.324.828,1.105,1.105,0,0,1-.3.816L26.3,11.916a1.293,1.293,0,0,1-.828.336,1.044,1.044,0,0,1-.792-.336A1.2,1.2,0,0,1,24.372,11.088Zm3.108,7.476a1.124,1.124,0,0,1,.312-.8,1.067,1.067,0,0,1,.8-.324H31.38a1.16,1.16,0,0,1,.828.324,1.062,1.062,0,0,1,.348.8,1.18,1.18,0,0,1-.348.84,1.1,1.1,0,0,1-.828.36H28.6a1.055,1.055,0,0,1-.792-.348A1.2,1.2,0,0,1,27.48,18.564Z" transform="translate(-3.456 -4.02)" fill="#fff"/>
</svg>
